<svg xmlns="http://www.w3.org/2000/svg" xmlns:xlink="http://www.w3.org/1999/xlink" aria-hidden="true" role="img" width="1em" height="1em" viewBox="0 0 48 48" class="iconify iconify--icon-park-outline"><g fill="none"><path stroke="currentColor" stroke-linejoin="round" stroke-width="4" d="M24 44a19.94 19.94 0 0 0 14.142-5.858A19.94 19.94 0 0 0 44 24a19.94 19.94 0 0 0-5.858-14.142A19.94 19.94 0 0 0 24 4A19.94 19.94 0 0 0 9.858 9.858A19.94 19.94 0 0 0 4 24a19.94 19.94 0 0 0 5.858 14.142A19.94 19.94 0 0 0 24 44Z"></path><path fill="currentColor" fill-rule="evenodd" d="M24 11a2.5 2.5 0 1 1 0 5a2.5 2.5 0 0 1 0-5" clip-rule="evenodd"></path><path stroke="currentColor" stroke-linecap="round" stroke-linejoin="round" stroke-width="4" d="M24.5 34V20h-2M21 34h7"></path></g></svg>