<svg xmlns="http://www.w3.org/2000/svg" xmlns:xlink="http://www.w3.org/1999/xlink" fill="none" version="1.1" width="70" height="70" viewBox="0 0 70 70">
    <g>
        <g>
            <!-- <ellipse cx="35" cy="35" rx="32" ry="32" fill="#D8D8D8" fill-opacity="1"/> -->
        </g>
        <!-- <g>
            <g>
                <ellipse cx="35" cy="35" rx="32" ry="32" fill="#EEEFF4" fill-opacity="1"/>
                <ellipse cx="35" cy="35" rx="33.5" ry="33.5" fill-opacity="0" stroke-opacity="1" stroke="#FFFFFF" fill="none" stroke-width="3"/>
            </g>
        </g> -->
        <g>
            <ellipse cx="16.5" cy="30.5" rx="4.5" ry="4.5" fill="#C0C2CB" fill-opacity="1"/>
        </g>
        <g>
            <ellipse cx="53.5" cy="30.5" rx="4.5" ry="4.5" fill="#C0C2CB" fill-opacity="1"/>
        </g>
        <g>
            <ellipse cx="16" cy="40.5" rx="7" ry="2.5" fill="#E3E5EA" fill-opacity="1"/></g><g><ellipse cx="54" cy="40.5" rx="7" ry="2.5" fill="#E3E5EA" fill-opacity="1"/>
        </g>
        <g>
            <path d="M44.5,28L44.5,31Q44.5,32.931110000000004,43.7524,34.6986Q43.0311,36.403890000000004,41.7175,37.717510000000004Q40.4039,39.0311,38.6986,39.7524Q36.931110000000004,40.5,35,40.5Q33.068889999999996,40.5,31.3014,39.7524Q29.59611,39.0311,28.282485,37.717510000000004Q26.96886,36.403890000000004,26.24758,34.6986Q25.5,32.931110000000004,25.5,31L25.5,28L30.5,28L30.5,31Q30.5,32.86396,31.81802,34.18198Q33.13604,35.5,35,35.5Q36.86396,35.5,38.182,34.18198Q39.5,32.86396,39.5,31L39.5,28L44.5,28ZM44.5,28Q44.5,28.122817,44.488,28.245043Q44.475899999999996,28.367269,44.452,28.487726Q44.428,28.608183,44.392399999999995,28.725712Q44.356700000000004,28.84324,44.3097,28.956708Q44.262699999999995,29.07018,44.2048,29.17849Q44.1469,29.28681,44.0787,29.38893Q44.010400000000004,29.491039999999998,43.9325,29.58598Q43.8546,29.68092,43.7678,29.76777Q43.6809,29.85461,43.586,29.93253Q43.491,30.01044,43.3889,30.07867Q43.2868,30.14691,43.1785,30.2048Q43.0702,30.2627,42.9567,30.3097Q42.843199999999996,30.3567,42.7257,30.39235Q42.6082,30.428,42.487700000000004,30.45196Q42.3673,30.47592,42.245,30.48796Q42.1228,30.5,42,30.5Q41.8772,30.5,41.755,30.48796Q41.6327,30.47592,41.512299999999996,30.45196Q41.3918,30.428,41.2743,30.39235Q41.156800000000004,30.3567,41.0433,30.3097Q40.9298,30.2627,40.8215,30.2048Q40.7132,30.14691,40.6111,30.07867Q40.509,30.01044,40.414,29.93253Q40.3191,29.85461,40.2322,29.76777Q40.1454,29.68092,40.0675,29.58598Q39.989599999999996,29.491039999999998,39.9213,29.38893Q39.8531,29.28681,39.7952,29.17849Q39.7373,29.07018,39.6903,28.956708Q39.643299999999996,28.84324,39.6076,28.725712Q39.572,28.608183,39.548,28.487726Q39.524100000000004,28.367269,39.512,28.245043Q39.5,28.122817,39.5,28Q39.5,27.877183,39.512,27.754957Q39.524100000000004,27.632731,39.548,27.512274Q39.572,27.391817,39.6076,27.274288Q39.643299999999996,27.15676,39.6903,27.043292Q39.7373,26.92982,39.7952,26.82151Q39.8531,26.71319,39.9213,26.61107Q39.989599999999996,26.508960000000002,40.0675,26.41402Q40.1454,26.31908,40.2322,26.23223Q40.3191,26.14539,40.414,26.06747Q40.509,25.98956,40.6111,25.92133Q40.7132,25.85309,40.8215,25.7952Q40.9298,25.7373,41.0433,25.6903Q41.156800000000004,25.6433,41.2743,25.60765Q41.3918,25.572,41.512299999999996,25.54804Q41.6327,25.52408,41.755,25.51204Q41.8772,25.5,42,25.5Q42.1228,25.5,42.245,25.51204Q42.3673,25.52408,42.487700000000004,25.54804Q42.6082,25.572,42.7257,25.60765Q42.843199999999996,25.6433,42.9567,25.6903Q43.0702,25.7373,43.1785,25.7952Q43.2868,25.85309,43.3889,25.92133Q43.491,25.98956,43.586,26.06747Q43.6809,26.14539,43.7678,26.23223Q43.8546,26.31908,43.9325,26.41402Q44.010400000000004,26.508960000000002,44.0787,26.61107Q44.1469,26.71319,44.2048,26.82151Q44.262699999999995,26.92982,44.3097,27.043292Q44.356700000000004,27.15676,44.392399999999995,27.274288Q44.428,27.391817,44.452,27.512274Q44.475899999999996,27.632731,44.488,27.754957Q44.5,27.877183,44.5,28ZM30.5,28Q30.5,28.122817,30.48796,28.245043Q30.47592,28.367269,30.45196,28.487726Q30.428,28.608183,30.39235,28.725712Q30.3567,28.84324,30.3097,28.956708Q30.2627,29.07018,30.2048,29.17849Q30.14691,29.28681,30.07867,29.38893Q30.01044,29.491039999999998,29.93253,29.58598Q29.85461,29.68092,29.76777,29.76777Q29.68092,29.85461,29.58598,29.93253Q29.491039999999998,30.01044,29.38893,30.07867Q29.28681,30.14691,29.17849,30.2048Q29.07018,30.2627,28.956708,30.3097Q28.84324,30.3567,28.725712,30.39235Q28.608183,30.428,28.487726,30.45196Q28.367269,30.47592,28.245043,30.48796Q28.122817,30.5,28,30.5Q27.877183,30.5,27.754957,30.48796Q27.632731,30.47592,27.512274,30.45196Q27.391817,30.428,27.274288,30.39235Q27.15676,30.3567,27.043292,30.3097Q26.92982,30.2627,26.82151,30.2048Q26.71319,30.14691,26.61107,30.07867Q26.508960000000002,30.01044,26.41402,29.93253Q26.31908,29.85461,26.23223,29.76777Q26.14539,29.68092,26.06747,29.58598Q25.98956,29.491039999999998,25.92133,29.38893Q25.85309,29.28681,25.7952,29.17849Q25.7373,29.07018,25.6903,28.956708Q25.6433,28.84324,25.60765,28.725712Q25.572,28.608183,25.54804,28.487726Q25.52408,28.367269,25.51204,28.245043Q25.5,28.122817,25.5,28Q25.5,27.877183,25.51204,27.754957Q25.52408,27.632731,25.54804,27.512274Q25.572,27.391817,25.60765,27.274288Q25.6433,27.15676,25.6903,27.043292Q25.7373,26.92982,25.7952,26.82151Q25.85309,26.71319,25.92133,26.61107Q25.98956,26.508960000000002,26.06747,26.41402Q26.14539,26.31908,26.23223,26.23223Q26.31908,26.14539,26.41402,26.06747Q26.508960000000002,25.98956,26.61107,25.92133Q26.71319,25.85309,26.82151,25.7952Q26.92982,25.7373,27.043292,25.6903Q27.15676,25.6433,27.274288,25.60765Q27.391817,25.572,27.512274,25.54804Q27.632731,25.52408,27.754957,25.51204Q27.877183,25.5,28,25.5Q28.122817,25.5,28.245043,25.51204Q28.367269,25.52408,28.487726,25.54804Q28.608183,25.572,28.725712,25.60765Q28.84324,25.6433,28.956708,25.6903Q29.07018,25.7373,29.17849,25.7952Q29.28681,25.85309,29.38893,25.92133Q29.491039999999998,25.98956,29.58598,26.06747Q29.68092,26.14539,29.76777,26.23223Q29.85461,26.31908,29.93253,26.41402Q30.01044,26.508960000000002,30.07867,26.61107Q30.14691,26.71319,30.2048,26.82151Q30.2627,26.92982,30.3097,27.043292Q30.3567,27.15676,30.39235,27.274288Q30.428,27.391817,30.45196,27.512274Q30.47592,27.632731,30.48796,27.754957Q30.5,27.877183,30.5,28Z" fill="#C0C2CB" fill-opacity="1"/>
        </g>
    </g>
</svg>